<svg width="131" height="30" viewBox="0 0 131 30" fill="none" xmlns="http://www.w3.org/2000/svg">
<path d="M37.8986 8.35751C39.9275 8.35751 41.5862 8.74399 42.8744 9.51693C44.1787 10.2738 45.1288 11.2963 45.7246 12.5846C46.3205 13.8567 46.6184 15.2818 46.6184 16.8599C46.6184 18.438 46.3124 19.8712 45.7005 21.1594C45.0886 22.4316 44.1304 23.4541 42.8261 24.2271C41.5217 24.9839 39.8792 25.3623 37.8986 25.3623H31.5459V8.35751H37.8986ZM38.2609 22.4638C39.3559 22.4638 40.2818 22.2061 41.0387 21.6908C41.8116 21.1594 42.3833 20.467 42.7536 19.6136C43.1401 18.7601 43.3333 17.8422 43.3333 16.8599C43.3333 15.8776 43.1401 14.9598 42.7536 14.1063C42.3833 13.2528 41.8116 12.5685 41.0387 12.0532C40.2818 11.5218 39.3559 11.2561 38.2609 11.2561H34.8309V22.4638H38.2609Z" fill="black"/>
<path d="M47.2488 21.8599C47.2488 20.5395 47.6675 19.5652 48.5049 18.9372C49.3583 18.2931 50.4855 17.9308 51.8865 17.8503L53.1184 17.802C54.2134 17.7698 54.9944 17.6973 55.4614 17.5846C55.9284 17.4718 56.1538 17.1981 56.1377 16.7633C56.1216 16.2158 55.9364 15.773 55.5822 15.4348C55.2279 15.0966 54.5596 14.9276 53.5773 14.9276C52.5789 14.9276 51.8704 15.1047 51.4517 15.459C51.0331 15.7971 50.7754 16.2641 50.6788 16.8599H47.6353C47.8446 15.3462 48.5129 14.2271 49.6401 13.5024C50.7674 12.7778 52.112 12.4155 53.674 12.4155C55.3809 12.4155 56.7335 12.8342 57.7319 13.6715C58.7303 14.5089 59.2295 16.0548 59.2295 18.3092V25.3623H56.1377V24.4686C56.1377 23.9855 56.2585 23.5185 56.5 23.0677C56.5645 22.9066 56.5967 22.7859 56.5967 22.7053C56.5967 22.6087 56.5564 22.5443 56.4759 22.5121L56.3793 22.4879C56.2826 22.4879 56.2102 22.5363 56.1619 22.6329C56.1136 22.7134 56.0894 22.7617 56.0894 22.7778C55.3326 24.6297 53.8672 25.5556 51.6933 25.5556C50.9042 25.5556 50.1635 25.3946 49.4711 25.0725C48.7947 24.7504 48.2553 24.3076 47.8527 23.744C47.4501 23.1804 47.2488 22.5524 47.2488 21.8599ZM56.1377 18.7923C55.8157 19.1466 55.3889 19.3962 54.8575 19.5411C54.3422 19.6699 53.529 19.7907 52.4179 19.9034C51.7255 19.9839 51.2021 20.1691 50.8479 20.459C50.5097 20.7327 50.3406 21.1433 50.3406 21.6908C50.3406 22.1578 50.5178 22.5363 50.872 22.8261C51.2424 23.116 51.7174 23.2609 52.2971 23.2609C52.5065 23.2609 52.6675 23.2528 52.7802 23.2367C53.7303 23.1079 54.5194 22.6973 55.1474 22.0049C55.7915 21.3124 56.1216 20.2416 56.1377 18.7923Z" fill="black"/>
<path d="M65.6195 20.8454C65.7484 21.2319 65.8128 21.715 65.8128 22.2947C65.8128 22.5685 65.9094 22.7053 66.1026 22.7053C66.2959 22.7053 66.3925 22.5685 66.3925 22.2947C66.3925 21.7633 66.4649 21.2802 66.6099 20.8454L69.3393 12.6087H72.6244L67.2137 26.8358C66.779 27.9791 66.2314 28.7923 65.5712 29.2754C64.911 29.7585 64.0253 30 62.9142 30H60.5954V27.2947H61.6582C62.3667 27.2947 62.8579 27.2786 63.1316 27.2464C63.4215 27.2142 63.6389 27.1337 63.7838 27.0049C63.9448 26.876 64.0817 26.6425 64.1944 26.3044L64.4601 25.5314L59.4843 12.6087H62.7693L65.6195 20.8454Z" fill="black"/>
<path d="M86.9729 8.35751C89.2274 8.35751 90.894 8.86476 91.9729 9.87925C93.0519 10.8937 93.5913 12.19 93.5913 13.7681C93.5913 14.7504 93.3417 15.6522 92.8425 16.4735C92.3594 17.2947 91.6428 17.9549 90.6928 18.4541C89.7588 18.9372 88.6477 19.1788 87.3594 19.1788H83.3498V25.3623H80.0647V8.35751H86.9729ZM87.3353 16.4735C88.237 16.4735 88.9536 16.2319 89.485 15.7488C90.0325 15.2496 90.3063 14.6216 90.3063 13.8648C90.3063 13.0435 90.0406 12.4074 89.5092 11.9565C88.9939 11.4896 88.2692 11.2561 87.3353 11.2561H83.3498V16.4735H87.3353Z" fill="black"/>
<path d="M93.8334 21.8599C93.8334 20.5395 94.2521 19.5652 95.0895 18.9372C95.9429 18.2931 97.0701 17.9308 98.4711 17.8503L99.703 17.802C100.798 17.7698 101.579 17.6973 102.046 17.5846C102.513 17.4718 102.738 17.1981 102.722 16.7633C102.706 16.2158 102.521 15.773 102.167 15.4348C101.812 15.0966 101.144 14.9276 100.162 14.9276C99.1635 14.9276 98.455 15.1047 98.0363 15.459C97.6176 15.7971 97.36 16.2641 97.2634 16.8599H94.2199C94.4292 15.3462 95.0975 14.2271 96.2247 13.5024C97.3519 12.7778 98.6965 12.4155 100.259 12.4155C101.965 12.4155 103.318 12.8342 104.317 13.6715C105.315 14.5089 105.814 16.0548 105.814 18.3092V25.3623H102.722V24.4686C102.722 23.9855 102.843 23.5185 103.085 23.0677C103.149 22.9066 103.181 22.7859 103.181 22.7053C103.181 22.6087 103.141 22.5443 103.06 22.5121L102.964 22.4879C102.867 22.4879 102.795 22.5363 102.746 22.6329C102.698 22.7134 102.674 22.7617 102.674 22.7778C101.917 24.6297 100.452 25.5556 98.2779 25.5556C97.4888 25.5556 96.7481 25.3946 96.0556 25.0725C95.3793 24.7504 94.8399 24.3076 94.4373 23.744C94.0347 23.1804 93.8334 22.5524 93.8334 21.8599ZM102.722 18.7923C102.4 19.1466 101.974 19.3962 101.442 19.5411C100.927 19.6699 100.114 19.7907 99.0025 19.9034C98.3101 19.9839 97.7867 20.1691 97.4324 20.459C97.0943 20.7327 96.9252 21.1433 96.9252 21.6908C96.9252 22.1578 97.1023 22.5363 97.4566 22.8261C97.827 23.116 98.302 23.2609 98.8817 23.2609C99.0911 23.2609 99.2521 23.2528 99.3648 23.2367C100.315 23.1079 101.104 22.6973 101.732 22.0049C102.376 21.3124 102.706 20.2416 102.722 18.7923Z" fill="black"/>
<path d="M109.885 21.0628C109.901 21.6425 110.119 22.1337 110.537 22.5363C110.972 22.9388 111.697 23.1401 112.711 23.1401C113.645 23.1401 114.314 23.0032 114.716 22.7295C115.135 22.4557 115.344 22.0854 115.344 21.6184C115.344 21.3124 115.207 21.0789 114.934 20.9179C114.676 20.7569 114.314 20.6361 113.847 20.5556C113.38 20.459 112.647 20.3543 111.649 20.2416C109.909 20.0322 108.734 19.5652 108.122 18.8406C107.526 18.0999 107.228 17.2545 107.228 16.3044C107.228 15.5958 107.438 14.9517 107.856 14.372C108.275 13.7762 108.895 13.3012 109.716 12.9469C110.537 12.5926 111.528 12.4155 112.687 12.4155C114.314 12.4155 115.594 12.802 116.528 13.5749C117.462 14.3317 117.969 15.314 118.05 16.5218H115.006C114.958 16.0387 114.748 15.6361 114.378 15.314C114.024 14.992 113.436 14.8309 112.615 14.8309C111.085 14.8309 110.32 15.2657 110.32 16.1353C110.32 16.3768 110.376 16.5781 110.489 16.7392C110.618 16.9002 110.884 17.0451 111.286 17.1739C111.689 17.3028 112.285 17.4074 113.074 17.4879C114.764 17.6651 116.077 18.0596 117.011 18.6715C117.961 19.2673 118.436 20.1691 118.436 21.3768C118.436 22.7134 117.929 23.744 116.914 24.4686C115.916 25.1933 114.483 25.5556 112.615 25.5556C110.811 25.5556 109.41 25.1611 108.412 24.372C107.43 23.5669 106.906 22.4638 106.842 21.0628H109.885Z" fill="black"/>
<path d="M122.115 21.0628C122.131 21.6425 122.349 22.1337 122.767 22.5363C123.202 22.9388 123.927 23.1401 124.941 23.1401C125.875 23.1401 126.544 23.0032 126.946 22.7295C127.365 22.4557 127.574 22.0854 127.574 21.6184C127.574 21.3124 127.437 21.0789 127.164 20.9179C126.906 20.7569 126.544 20.6361 126.077 20.5556C125.61 20.459 124.877 20.3543 123.879 20.2416C122.139 20.0322 120.964 19.5652 120.352 18.8406C119.756 18.0999 119.458 17.2545 119.458 16.3044C119.458 15.5958 119.668 14.9517 120.086 14.372C120.505 13.7762 121.125 13.3012 121.946 12.9469C122.767 12.5926 123.758 12.4155 124.917 12.4155C126.544 12.4155 127.824 12.802 128.758 13.5749C129.692 14.3317 130.199 15.314 130.279 16.5218H127.236C127.188 16.0387 126.978 15.6361 126.608 15.314C126.254 14.992 125.666 14.8309 124.845 14.8309C123.315 14.8309 122.55 15.2657 122.55 16.1353C122.55 16.3768 122.606 16.5781 122.719 16.7392C122.848 16.9002 123.114 17.0451 123.516 17.1739C123.919 17.3028 124.515 17.4074 125.304 17.4879C126.994 17.6651 128.307 18.0596 129.241 18.6715C130.191 19.2673 130.666 20.1691 130.666 21.3768C130.666 22.7134 130.159 23.744 129.144 24.4686C128.146 25.1933 126.713 25.5556 124.845 25.5556C123.041 25.5556 121.64 25.1611 120.642 24.372C119.66 23.5669 119.136 22.4638 119.072 21.0628H122.115Z" fill="black"/>
<path d="M10.8696 5.43478C10.8696 8.43627 8.43627 10.8696 5.43478 10.8696C2.4333 10.8696 0 8.43627 0 5.43478C0 2.4333 2.4333 0 5.43478 0C8.43627 0 10.8696 2.4333 10.8696 5.43478Z" fill="black"/>
<path d="M4.83093 16.64L16.64 4.83093L18.116 6.30692L6.30692 18.116L4.83093 16.64Z" fill="black"/>
<path d="M6.03864 21.4095L21.4095 6.03864L22.9468 7.57596L7.57596 22.9468L6.03864 21.4095Z" fill="black"/>
<path d="M8.4541 25.3621H25.3619V8.4541L8.4541 25.3621Z" fill="black"/>
</svg>
