<svg width="48" height="34" viewBox="0 0 48 34" fill="none" xmlns="http://www.w3.org/2000/svg">
<path d="M29.765 0.0137037C28.7896 0.178239 27.8566 0.776712 27.2483 1.39116C26.0824 1.09766 24.9719 1.61573 24.3648 2.20419C22.2758 4.58884 20.155 6.96457 18.0482 9.33992L11.9816 8.36091C11.2752 8.09594 10.4433 7.97032 9.76516 7.97922C8.0464 8.01072 6.35297 8.7552 4.88164 10.0204C2.92031 11.7068 1.33184 14.3023 0.531551 17.4218C-0.268667 20.5409 -0.140324 23.6237 0.748065 26.1009C1.63645 28.5778 3.3113 30.477 5.58139 31.1125C5.91956 31.207 6.25699 31.2615 6.59815 31.2952C7.51445 32.4707 9.09405 33.4157 10.715 33.469C17.2154 33.9911 24.7531 34 31.215 34C31.3351 34 31.4546 33.9585 31.5483 33.8836C37.5107 29.1544 42.395 24.4104 47.2654 19.1642C47.9898 18.2504 48.0816 17.2057 47.9488 16.3598C47.7654 15.4552 47.2569 14.4951 46.7822 13.8043C42.9422 7.43345 37.9853 4.2247 32.0489 0.561916C31.2096 0.108712 30.5128 -0.0517538 29.7653 0.0142161L29.765 0.0137037ZM29.8316 1.07573C30.4164 1.03534 30.9842 1.23693 31.4815 1.47409C37.4142 5.13422 42.1663 8.19365 45.8815 14.3683C46.2848 15.0794 46.7647 15.8235 46.8983 16.5421C46.9957 17.2017 46.8748 17.9709 46.4318 18.5168C41.6441 23.6699 36.8556 28.3041 31.0318 32.9374C24.5932 32.9374 17.1347 32.9226 10.748 32.4064C9.66505 32.3574 8.68809 31.8857 7.98124 31.2779C9.46114 31.0889 10.9065 30.3826 12.1814 29.2865C14.1428 27.6001 15.7312 25.0045 16.5315 21.8854C17.3317 18.7663 17.2034 15.6999 16.315 13.223C15.8299 11.8704 15.1044 10.6887 14.1819 9.78781C15.5929 9.92566 17.4453 10.214 18.4654 10.4185C20.8407 12.1772 22.859 16.4806 24.5822 20.5246C25.5141 22.7121 26.3728 24.8091 27.2656 26.3989C27.9825 27.5966 28.9907 29.1919 30.3992 29.22C30.6425 29.2148 30.8701 29.0266 30.9159 28.7887C32.5287 20.761 32.5342 13.261 31.9992 5.27422C31.9479 5.01593 31.8095 4.7569 31.7158 4.5442C35.5204 7.1182 39.0197 10.5326 42.2662 14.1693C42.4537 14.3779 42.8153 14.3976 43.0248 14.2108C43.2342 14.0241 43.2539 13.6642 43.0664 13.4556C38.7926 8.66856 34.0442 4.21507 28.6331 1.50721C29.01 1.24781 29.388 1.1307 29.8333 1.07586L29.8316 1.07573ZM9.78118 9.04116C10.2581 9.03264 10.7313 9.07674 11.1978 9.20718C13.0632 9.72931 14.5093 11.3265 15.3147 13.5714C16.1198 15.8163 16.2492 18.6912 15.4981 21.6198C14.747 24.5484 13.2637 26.9553 11.4981 28.4735C9.73249 29.9918 7.73031 30.6218 5.86459 30.1C3.99926 29.5779 2.55317 27.9807 1.74774 25.7358C0.942686 23.4909 0.81322 20.616 1.56433 17.6874C2.31545 14.7587 3.79871 12.3519 5.56433 10.8337C6.88833 9.69489 8.35042 9.06678 9.78118 9.04154V9.04116ZM9.99769 10.1199C6.5576 10.9763 4.18561 14.0731 3.14761 17.5876C2.10932 21.1022 2.37231 25.0928 4.36408 27.9262C4.51512 28.1759 4.89161 28.2537 5.13008 28.0848C5.36855 27.9158 5.41802 27.5359 5.23053 27.3121C3.4891 24.8353 3.21863 21.1425 4.18072 17.8863C5.14281 14.6301 7.30424 11.8857 10.264 11.1489C10.5434 11.1185 10.7696 10.838 10.7391 10.5597C10.616 10.0839 10.2838 10.0921 9.9973 10.1199L9.99769 10.1199ZM10.5312 12.7583C9.39461 12.7583 8.14166 13.4309 7.01442 15.1148C6.76926 15.6806 6.90281 16.1042 7.26442 16.5418C7.56315 16.872 7.95341 17.124 8.34775 17.3386C8.99656 17.691 9.46089 17.8262 9.68108 17.9026C9.72052 18.1194 9.79195 18.5922 10.0312 19.2466C10.1759 19.6432 10.3463 20.023 10.6312 20.3421C11.0356 20.769 11.4259 20.8127 11.9646 20.6574C13.4452 20.0526 14.2462 18.8046 14.398 17.5209C14.5509 16.2269 14.1071 14.8914 13.1815 13.9697C12.5852 13.3761 11.6681 12.7583 10.5316 12.7583L10.5312 12.7583ZM7.46461 18.5996C6.87533 18.5996 6.39804 19.075 6.39804 19.6616C6.39804 20.2482 6.87572 20.7236 7.46461 20.7236C8.0539 20.7236 8.53118 20.2482 8.53118 19.6616C8.53118 19.075 8.0535 18.5996 7.46461 18.5996Z" fill="#FF44EC"/>
</svg>
